<?xml version="1.0" encoding="utf-8"?>
<!-- Generator: Adobe Illustrator 24.0.1, SVG Export Plug-In . SVG Version: 6.00 Build 0)  -->
<svg version="1.1" id="Layer_1" xmlns="http://www.w3.org/2000/svg" xmlns:xlink="http://www.w3.org/1999/xlink" x="0px" y="0px"
	 viewBox="0 0 1000 1000" style="enable-background:new 0 0 1000 1000;" xml:space="preserve">
<path d="M588.19,428.93l0.47-1.3h0.56l9.39-1.99l8.64-3.96l11.31-2.51l6.07,3.64c0.6,0.71,3.4,4.04,5.2,5.84
	c0.86,0.86,1.76,1.25,2.69,1.15c0.87-0.09,1.48-0.58,1.82-0.94l3.33-0.55l7.54,2.51l6.1,2.71h9.39l7.8-1.4l4.78-6.82l2.93-2.92h3.93
	l2.74-2.74l5.79-1.74l5.15,4.41l5.78-11.57l5.78-9.63l4.8-3h6.27l6.01-1.31h7.56l7.63,3.18l5.83,3.24l8.17,4.77l4.94-0.71l5.01-1.25
	l5.22,2.32l2.99,7.19l-1.83,6.7l-5.66,7.55l-5.73,3.18l-5.09,2.91v4.33l4.3,3.58l4.58,2.63l2.47,2.97l-0.9,3.24l-3.64,3.19
	c-0.19,0.11-0.68,0.42-1.29,0.84c-0.85,0.59-1.94,1.39-2.76,2.21c-1.1,1.1-5.02,3.36-6.56,4.2l-4.06,1.16v6.09l3.93,3.94l0,6.89
	l-0.46,5.91l-3.97,2.65l-4.69,2.35l-5.45,0.5l-5.4,3.24l-2.77,6.65l3.09,5.66l0.4,3.58l-2.72,1.55c-0.64,0.1-2.91,0.45-4.09,0.45
	c-1.71,0-4.88,2.2-5.5,2.65l-0.35,0.25l-0.06,0.42c-0.13,0.93-0.56,3.6-0.94,4.74c-0.03,0.08-0.06,0.19-0.11,0.3
	c-0.01,0.04-0.03,0.08-0.04,0.12c-0.03,0.09-0.07,0.18-0.11,0.28c-0.02,0.05-0.04,0.11-0.07,0.17c-0.04,0.1-0.08,0.2-0.12,0.31
	c-0.02,0.06-0.05,0.12-0.08,0.19c-0.05,0.13-0.1,0.26-0.16,0.4c-0.02,0.05-0.04,0.1-0.06,0.16c-0.08,0.19-0.16,0.39-0.24,0.6
	c-0.02,0.04-0.04,0.09-0.06,0.14c-0.07,0.17-0.14,0.34-0.21,0.52c-0.03,0.06-0.05,0.12-0.08,0.18c-0.07,0.17-0.14,0.34-0.21,0.5
	c-0.02,0.05-0.04,0.1-0.06,0.15c-0.09,0.21-0.17,0.42-0.26,0.62c0,0.01,0,0.01-0.01,0.02c-0.51,1.23-1,2.37-1.29,3.04l-3.21-3.85
	l-4.91-1.09l-6.42,0.54l-3.47,3.47c-0.78,0.12-2.84,0.43-3.95,0.43c-1.66,0-3.67,0.98-3.89,1.09l-4.15,3.58l-0.09,0.09
	c-0.16,0.18-3.99,4.5-5,6.01c-0.92,1.37-1.75,5-2.03,6.32l-4.38,2.63l-8.03,1.42c-3.96-0.47-8.46-1.26-9.25-1.79
	c-0.27-0.18-0.62-0.37-1.02-0.57c-1.73-0.85-4.33-1.74-5-1.97c-1.97-1.27-6.96-4.57-8.09-5.7c-1.54-1.54-6.38-4.45-6.59-4.58
	l-6.29-2.12l-7.3,0.52l-3.16,1.72c-0.06-0.26-0.11-0.5-0.17-0.72c-0.02-0.06-0.03-0.12-0.04-0.18c-0.05-0.19-0.09-0.36-0.13-0.51
	c-0.01-0.05-0.03-0.11-0.04-0.16c-0.05-0.18-0.1-0.34-0.14-0.47c-0.39-1.18-0.81-3.14-0.91-4.54c-0.01-0.2-0.02-0.39-0.02-0.56
	c0-1.31,0-5.29,0.46-7.14c0.06-0.25,0.11-0.51,0.15-0.77c0.07-0.53,0.1-1.09,0.1-1.62c0-1.34-0.17-2.53-0.22-2.85
	c-0.01-0.54-0.14-3.4-1.56-6.7c-1.1-2.58-1.42-3.05-1.99-3.8c-0.15-0.2-0.33-0.44-0.56-0.79c-0.6-0.9-0.77-1.57-0.99-2.42
	c-0.1-0.4-0.21-0.82-0.37-1.28c-0.54-1.62-3.16-4.3-3.68-4.82l-0.24-0.24l-4.39-0.55l-0.12,0.01c-0.01,0-0.08,0.01-0.2,0.02
	c-0.88,0.1-4.36,0.46-5.59,0.46c-1.34,0-3.2-0.47-5.53-1.4c-1.91-0.76-3.9-2.94-4.4-3.51c-0.28-0.86-1.45-4.58-1.87-7.51
	c-0.42-2.91-0.83-4.77-0.96-5.33c0.15-1.32,0.56-4.45,0.92-5.52c0.14-0.43,0.37-0.99,0.63-1.6c0.65-1.59,1.39-3.39,1.39-4.62v-3.3
	l-0.22-0.27c-0.02-0.02-1.95-2.44-2.9-3.87c-0.55-0.83-0.5-2.72-0.35-3.63l0.94-3.74l2.71-3.61l3.57-2.04l1.25-3.12l-1.58-4.72
	l-1.4-5.12L588.19,428.93z"/>
<path d="M483.12,410.33l1.05,1.89l4.77,3.41l5.22,1.79l1.46-5.85c1.07-0.55,3.96-2.04,5.6-3.13c0.72-0.48,1.47-0.65,2.33-0.84
	c1.24-0.28,2.64-0.59,4.27-1.82c1.7-1.27,2.45-2.1,2.78-2.66l4.15-1.78l3.84-1.28l9.77-1.3l3.57-0.6l3.2,1.92h5.13l4.82-2.76
	l3.29-3.24l-2.15-5.74l-0.63-5.07v-4.03l1.73-1.3l3.24,1.62l3.77,3.77l3.73,4.97l0.62,6.18v5.9l0.75,3.86l4.74,3.39l1.72,2.86v4.11
	l0.34,0.3c0.21,0.19,5.31,4.64,7.93,6.6c2.54,1.9,6.41,5.77,6.45,5.81l0.29,0.29h5.6l-1.8,5.37l1.57,5.76l1.36,4.08l-0.72,1.79
	l-3.32,1.9l-3.2,4.26l-1.05,4.21c-0.06,0.34-0.52,3.39,0.65,5.15c0.81,1.22,2.24,3.04,2.78,3.73v2.6c0,0.83-0.72,2.58-1.24,3.86
	c-0.27,0.66-0.52,1.26-0.67,1.73c-0.51,1.53-0.98,5.64-1.03,6.11l-0.02,0.18l0.04,0.17c0,0.02,0.49,1.97,0.96,5.31
	c0.5,3.49,1.95,7.86,2.01,8.04l0.06,0.18l0.12,0.15c0.11,0.13,2.65,3.16,5.32,4.22c2.6,1.04,4.66,1.55,6.27,1.55
	c1.39,0,5.16-0.41,5.89-0.49l3.47,0.43c1.15,1.18,2.7,2.99,2.96,3.79c0.14,0.42,0.24,0.79,0.33,1.15c0.24,0.91,0.48,1.85,1.26,3.02
	c0.26,0.39,0.45,0.65,0.62,0.88c0.44,0.59,0.69,0.92,1.75,3.39c1.37,3.19,1.39,5.97,1.39,6l0.01,0.16c0.01,0.07,0.02,0.16,0.04,0.25
	c0.02,0.16,0.05,0.39,0.08,0.67c0.01,0.14,0.03,0.28,0.04,0.44c0,0.02,0,0.03,0,0.05c0.06,0.78,0.08,1.71-0.03,2.51
	c0,0.02-0.01,0.03-0.01,0.05c-0.03,0.19-0.06,0.38-0.1,0.55c-0.52,2.09-0.52,6.11-0.52,7.62c0,1.64,0.53,4.2,1.04,5.73
	c0.01,0.04,0.03,0.09,0.04,0.14c0,0.01,0.01,0.03,0.01,0.05c0.01,0.04,0.03,0.09,0.04,0.14c0.01,0.02,0.01,0.05,0.02,0.08
	c0.01,0.05,0.03,0.11,0.04,0.17c0.01,0.03,0.02,0.06,0.03,0.1c0.02,0.06,0.03,0.13,0.05,0.2c0.01,0.04,0.02,0.09,0.03,0.14
	c0.02,0.07,0.03,0.14,0.05,0.22c0.01,0.06,0.03,0.12,0.04,0.19c0.02,0.07,0.03,0.15,0.05,0.22c0.05,0.23,0.11,0.48,0.17,0.77
	l-0.42,0.23l-5.87,0.45c-0.71-0.42-2.71-1.63-3.96-2.69c-0.18-0.15-0.34-0.3-0.48-0.44c-1.54-1.54-5.42-3.97-5.59-4.08l-8.13-2.21
	l-4.8,3.74l-3.7,2.78l-0.96,0.07l-0.04,0l0,0l-4.9,0.38l-8.54-2.84l-5.86-3.9l-4.65-2.59h-8.54l-3.66,3.66l-5.07,3.23h-8.39
	l-5.2-1.89l-4.36-1.82l0,0l-1.03-0.43l-0.94-5.65l-5.12-5.63l-7.08-4.6l-5.83-2.92l-5.19-5.66l-2.23-4.46l0.79-3.17l2.04-1.23
	l5.92-2.47l6.85-3.69l1.09-9.28l-6.77-8.86l-0.19-0.1c-1.06-0.56-2.14-1.16-3.19-1.78c-3.14-1.84-5.88-3.73-6.14-4.47
	c-0.04-0.17-0.11-0.34-0.19-0.5c-0.04-0.08-0.09-0.16-0.14-0.24c-0.04-0.07-0.08-0.14-0.13-0.21c-0.07-0.09-0.14-0.19-0.22-0.28
	l0.02-0.06l-0.56-0.46l-0.16-0.14c-0.02-0.01-0.03-0.03-0.05-0.04l-0.84-0.7l-0.05,0.12c-0.48-0.29-1-0.55-1.51-0.82
	c-0.79-0.41-1.68-0.86-2.07-1.25c-0.06-0.06-0.1-0.11-0.14-0.16c-0.52-0.78-1.14-1.22-1.74-1.65c-0.7-0.5-1.43-1.02-2.17-2.25
	c-0.41-0.68-0.85-1.28-1.27-1.86c-1.14-1.56-2.03-2.79-2.03-5c0-2.01,0.17-3.14,0.31-4.05c0.1-0.64,0.18-1.19,0.18-1.85
	c0-0.57,0.65-1.56,1.18-2.36c0.49-0.74,0.99-1.51,1.23-2.24c0.51-1.54,0.98-6.1,1.03-6.61l0.02-0.2l-1.53-5.11l-1.89-4.28l0.93-6.05
	l1.44-5.27L483.12,410.33z"/>
<path d="M574.44,547.8v4.38l0.55,0.28c0,0,0.02,0.01,0.03,0.02c0.02,0.01,0.04,0.02,0.08,0.05c0.03,0.02,0.09,0.06,0.14,0.09
	c0.05,0.03,0.08,0.05,0.14,0.09c0.08,0.05,0.17,0.13,0.26,0.2c0.04,0.03,0.08,0.06,0.13,0.1c0.11,0.09,0.22,0.21,0.33,0.32
	c0.04,0.04,0.07,0.06,0.1,0.1c0.12,0.13,0.23,0.28,0.35,0.44c0.03,0.04,0.06,0.07,0.09,0.12c0.11,0.17,0.21,0.36,0.3,0.55
	c0.02,0.05,0.05,0.09,0.08,0.14c0.09,0.2,0.15,0.43,0.21,0.66c0.02,0.06,0.04,0.11,0.05,0.17c0.06,0.3,0.1,0.62,0.1,0.97
	c0,3.5,0.5,4.67,0.6,4.87l0.06,0.11c0.73,1.09,1.8,3.07,1.8,3.87c0,1.84,1.15,3.04,1.28,3.17l2.04,2.04l-0.81,2.84l-1.05,3.16
	l0.54,4.89l0.13,0.2c1.86,2.78,3.41,5.84,3.33,6.51c-0.28,0.85-1.04,1.81-1.5,2.32l-3.35,0.42c-1.29-0.43-5.44-1.76-7.17-1.93
	c-0.11-0.01-0.22-0.02-0.31-0.02c-1.54,0-4.47,0.49-4.59,0.51l-5.5,1.98l-5.53,0.92l-5.92-2.47l-5.92,1.18l-0.53,4.21
	c-0.89,0.64-3.08,2.37-4.35,4.48c-1.5,2.51-2.97,6.39-3.04,6.59c-0.04,0.13-1.03,3.13-1.03,5.24c0,2.14,1.86,5.92,2.07,6.35
	l3.97,4.51l1.83,4.58c-0.01,1.87-0.13,4.96-0.44,5.89c-0.15,0.45-1.67,1.08-3.17,1.3l-5.51,1.01l-3.64,1.04l-0.16,0.13
	c-0.1,0.08-2.58,2.07-4.11,4.12c-1.16,1.55-1.76,2.83-1.99,3.41l-2.94,2.1h-5.58c-0.72,0-0.96-1.82-0.97-2.44v-0.58l-3.8-2.17
	l-2.6-3.03v-7.01l-0.62-3.8l-6.02-1.2l-3.76,2.68l-5.69,3.32l-4.16,0.57l0,0l-0.07-0.19l-3.64-3.12l-4.23-2.14l-12.57-4.83
	l-6.14-6.61l-3.45-6.9l-5.7-5.71l-2.75-0.83l0.72-5.26l3.06-3.93l6.14-1.42l3.83-1.28l-1.27-5.07l-3.94-4.44l-1.3-4.76l2.11-3.38
	l5.94-3.96l2.68-5.37v-3.86l-2.42-6.3l0.85-4.25l2.9-2.07l4.37-0.44l1.61,0.8l2.83,2.36l4.79,4.31l3.02,5.54l5.38,2.69l7.81,0.56
	l2.37-5.92l-1.55-5.17l-0.41-3.68l2.59-1.48l4.2,0.47l6.02-0.55l3.35-5.59v-5.56l0.88-3.53l1.38-1.28l5.25,2.18l5.58,2.03h9.32
	l5.66-3.6l3.32-3.29h7.2l4.13,2.29l5.9,3.93l9.28,3.13l5.08-0.39l-0.04,1.15l-2.36,6.61L574.44,547.8z"/>
<path d="M482.59,664.33L482.59,664.33l-0.82,1.28l-0.41,0.64l-8.93,1.88l-4.14,1.82l-3.57-2.22c-0.12-0.06-3.03-1.51-4.56-2.02
	c-1.55-0.52-6.68-0.54-7.69-0.54l-9.07,1.99l-9.46,4.45l-4.48,1l-2.75,1.65l-0.11,0.14c-0.02,0.02-1.92,2.37-4.69,4.22
	c-0.8,0.53-1.53,0.96-2.18,1.33c-1.78,1.04-3.19,1.85-3.65,3.68c-0.53,2.11,0.37,7.65,0.48,8.28l0.04,0.26l4.49,5.49l1.18,3.15
	l-4.94,4.5l-3.48,3.48c-0.01,0-0.01,0-0.02-0.01c-0.25-0.09-0.5-0.2-0.77-0.3c-0.02-0.01-0.03-0.01-0.05-0.02
	c-0.27-0.11-0.55-0.22-0.83-0.34c0,0-0.01,0-0.01,0c-0.28-0.12-0.57-0.25-0.85-0.37c-0.01,0-0.02-0.01-0.02-0.01
	c-0.27-0.12-0.53-0.24-0.79-0.37c-0.03-0.02-0.06-0.03-0.1-0.05c-0.25-0.12-0.48-0.24-0.71-0.36c-0.04-0.02-0.07-0.04-0.11-0.06
	c-0.22-0.12-0.43-0.23-0.62-0.35c-0.03-0.02-0.06-0.04-0.09-0.05c-0.19-0.11-0.37-0.23-0.52-0.34c-0.02-0.01-0.03-0.02-0.05-0.04
	c-0.16-0.11-0.29-0.22-0.39-0.32c-1.31-1.31-4.61-3.24-5.74-3.89l-0.39-1.55c-0.3-1.2,0.1-3.07,0.37-4.01l2.3-1.38l1.79-2.39v-9.18
	l-0.38-0.3c-0.1-0.08-2.54-2.03-5.03-3.52c-2.5-1.5-4.96-2.49-5.06-2.53l-6.91-1.61l-6.66,3.59l-4.29,1.9l-3.52,0.39l-0.63-1.57
	v-1.28c0-1.62-0.95-4.04-1.05-4.3l-0.08-0.19l-3.35-3.35l-0.36-0.04c-0.08-0.01-0.18-0.02-0.28-0.03c-1.51-0.16-4.85-0.56-5.9-0.91
	c-1.54-0.51-6.1-0.98-6.61-1.03l-0.29-0.03l-4.15,2.08l-4.41,1.96l-3.44,1.47l-3.79,2.81c-0.9-0.17-3.13-0.63-5.33-1.36
	c-0.73-0.24-1.1-0.46-1.29-0.59l0.1-0.1l-1.07-5.35v-9.97l-2.24-4.48l-6.48-2.7l-9.11,1.01l-0.11,0.02c0,0-0.03,0.01-0.08,0.02
	c-0.75,0.17-6.37,1.43-8.55,1.43c-0.31,0-0.59-0.01-0.84-0.02c-0.08,0-0.15-0.01-0.22-0.01c-0.17-0.01-0.33-0.02-0.48-0.03
	c-0.06,0-0.12-0.01-0.18-0.01c-0.15-0.01-0.29-0.03-0.41-0.04c-0.02,0-0.05-0.01-0.08-0.01c-0.14-0.02-0.27-0.04-0.37-0.06
	l-2.46-5.53l-4.12-7.56l-6.05-2.02l-5.57-5.57l-1.19-3.58l-0.59-10.62h5.54l2.2-5.88l2.37-5.93h15.72l7.18-1.42l3.51-5.61l2.66-7.26
	l3.73-4.98l8.36-5.15l6.55-7.14l7.32-1.33l3.54-5.67l2.99-5.39h8.59l15.05-2.04l2.69,0.45l7.63-4.58l5.43-2.26l4.8,2.18l6.07,7.47
	c0.13,0.95,0.55,3.99,0.99,5.32c0.11,0.33,0.31,0.89,0.57,1.59c0.7,1.93,2.33,6.46,2.33,7.44c0,1.09,0.9,2.93,2.26,5.61
	c0.55,1.08,1.07,2.1,1.23,2.58c0.52,1.56,4.81,6.31,6.11,7.74l4.29,2.72l4.45,0.99l4.27,2.37c0.11,0.07,2.72,1.62,4.94,1.62h11.17
	l2.57,0.77v0l1.97,0.59l5.12,5.12l3.37,6.74l6.71,7.29l12.92,4.96l3.83,1.91l3.15,2.7l0.23,0.64c0.17,0.49,0.33,0.97,0.48,1.4
	c0,0,0,0.01,0,0.01c0.14,0.42,0.26,0.8,0.38,1.17c0.06,0.18,0.11,0.35,0.17,0.53c0.06,0.2,0.12,0.39,0.18,0.57
	c0.06,0.19,0.11,0.37,0.17,0.55c0.07,0.25,0.15,0.49,0.21,0.7c0.01,0.02,0.01,0.05,0.02,0.07c0.25,0.89,0.39,1.49,0.45,1.85
	c0,0,0,0,0,0c0.02,0.12,0.03,0.21,0.03,0.28c0,0.92-1.71,7.59-2.91,12.01l-2.42,8.23L482.59,664.33z"/>
<path d="M257.87,618c-1.46,0.49-4.45,3.34-5.53,4.4c-1.83,0.09-9.61,0.47-10.88,0.47c-1.26,0-7.08-0.38-8.48-0.47l-4.07-3.16
	l-6.91-9.88l-5.58-3.55l-5.97-2.02c-0.5-0.37-2.38-1.76-5.3-3.85c-3.34-2.39-3.68-3.22-4.57-5.46c-0.89-2.23-2.83-4.05-3.51-4.64
	l-2.34-7.03l-0.84-5.88l3.94-0.88l4.12-6.69l2.79-3.26l4.95-2.97l3.27-4.36v-9.27l4.88-4.88l0.04-0.35
	c0.13-1.34,0.56-5.05,0.94-6.18c0.12-0.37,0.22-0.74,0.32-1.13c0.29-1.13,0.62-2.42,2.02-4.53c1.8-2.7,1.76-4.72,1.66-5.44
	l1.38-5.98l3.52-4.52v-5.61l0.95-3.31l0.04-1.78l3.44-2.95v-4.03l2.04-2.45l6.11-1.88l4.84-2.98l-1.31-3.92l-2.42-2.42l-0.79-3.55
	l2.21-1.84h4.54l2.4-3l1.13-4.51l-2.52-5.04v-4.86l14.26-20.17v-1.53l1.43,0.26l3.43-0.43l1.52,2.67l0.48,6.66l1.98,6.53l0.59,4.72
	h6.46l5.66-1.89l5.29,2.64l3.61,5.67l9.47-0.53l6.53-0.56l0.43,2.99l2.69,8.77l3.25,7.8c0.21,0.85,1.99,7.94,2.63,9.84
	c0.37,1.11,1.36,2.6,2.41,4.17c0.93,1.4,1.89,2.84,2.18,3.7c0.72,2.15,5.87,6.23,6.89,7.03l9.3,5.33l10.57,3.98
	c2.78,1.56,5.31,3.62,5.32,4.34c0,2.21,4.24,6.62,5.54,7.92l4.95,3.13v8.63l4.75,2.04l1.84,6.75l4.56,7.48l-12.84,1.75h-9.7h0
	l-3.54,6.37l-3.04,4.87l-7.11,1.29l-6.69,7.36l-8.57,5.27l-4.05,5.4l-2.73,7.37l-2.99,4.79l-6.04,1.21H292.1l-2.88,7.21l-1.72,4.6
	h-4.21l0-10.64l-4.98-3.87l-4.62-1.15l-5.52,4.41l-2.45,6.37c-0.33,0.23-0.69,0.49-1.06,0.75
	C262.06,615.47,258.69,617.73,257.87,618z"/>
<path d="M417.63,486.07l0.79-2.78c0.8-0.61,2.42-1.78,3.38-2.1c0.7-0.23,1.29-0.71,1.98-1.27c1.08-0.87,2.3-1.86,4.24-2.13
	c3.5-0.5,8.83-2.43,9.05-2.51l0.16-0.06l5.99-4.99l5.15-3.28l10.36-0.94l5.13,1.86c0.66,0.37,4.07,2.24,5.7,2.88
	c0.11,0.04,0.21,0.08,0.3,0.11c1.52,0.51,5.48,1.5,7.99,2c2.53,0.51,2.58,0.51,5.61,0.51c3.35,0,6.37-3.89,6.7-4.33l1.49-3.64
	c0.03,0.04,0.06,0.08,0.09,0.12c0.05,0.06,0.09,0.12,0.14,0.19c0.07,0.09,0.15,0.17,0.23,0.26c0.06,0.06,0.12,0.13,0.18,0.19
	c0.09,0.09,0.19,0.19,0.29,0.28c0.07,0.06,0.13,0.13,0.2,0.19c0.12,0.1,0.24,0.21,0.36,0.31c0.07,0.06,0.14,0.12,0.21,0.17
	c0.15,0.12,0.32,0.25,0.48,0.38c0.05,0.04,0.1,0.08,0.15,0.12c0.22,0.17,0.45,0.33,0.69,0.5c0.05,0.04,0.11,0.07,0.16,0.11
	c0.19,0.13,0.38,0.26,0.58,0.39c0.09,0.06,0.18,0.12,0.27,0.18c0.16,0.11,0.32,0.21,0.49,0.32c0.11,0.07,0.21,0.13,0.32,0.2
	c0.15,0.1,0.3,0.19,0.45,0.28c0.11,0.07,0.22,0.14,0.34,0.2c0.15,0.09,0.3,0.18,0.45,0.27c0.11,0.07,0.22,0.13,0.33,0.2
	c0.15,0.09,0.29,0.17,0.44,0.26c0.11,0.06,0.22,0.13,0.32,0.19c0.15,0.08,0.29,0.16,0.43,0.24c0.1,0.06,0.2,0.12,0.3,0.17
	c0.14,0.08,0.28,0.16,0.42,0.23c0.09,0.05,0.18,0.1,0.27,0.15c0.14,0.08,0.27,0.15,0.41,0.22c0.08,0.04,0.16,0.09,0.24,0.13
	c0.2,0.11,0.39,0.21,0.57,0.3l6.01,7.87l-0.88,7.44l-5.85,3.15l-5.9,2.46l-2.95,1.75l-1.17,4.7l2.62,5.25l5.69,6.27l6.02,3.01
	l6.73,4.33l4.63,5.1l0.87,5.2l-1.81,1.68l-1.05,4.22l-0.03,5.38l-2.55,4.25l-4.8,0.44l-4.65-0.52l-4.3,2.45l0.56,5.08l1.41,4.76
	l-1.57,3.92l-5.96-0.43l-4.46-2.23l-2.88-5.28l-5.07-4.57l-2.95-2.46l-2.42-1.24l-5.47,0.55l-3.98,2.84l-1.12,5.59l2.5,6.49v3.02
	l-2.23,4.47l-5.86,3.91l-2.81,4.49l1.65,6.06l3.93,4.42l0.7,2.8l-1.98,0.66l-6.74,1.55l-3.83,4.92l-0.75,5.49l-0.47-0.14l-11.6-0.04
	c-1.38,0-3.29-0.96-3.94-1.35l-4.43-2.46l-4.53-1.05l-3.67-2.3c-0.61-0.66-1.23-1.36-1.83-2.06c-0.07-0.08-0.13-0.15-0.2-0.23
	c-1.4-1.62-2.65-3.16-3.23-4.04c-0.11-0.16-0.2-0.3-0.26-0.42c-0.04-0.07-0.06-0.13-0.08-0.18c-0.21-0.62-0.73-1.65-1.34-2.85
	c-0.71-1.4-2.05-4.01-2.05-4.7c0-1.23-1.16-4.54-2.45-8.12c-0.25-0.68-0.44-1.23-0.55-1.54c-0.38-1.13-0.81-4.15-0.94-5.22
	l-0.04-0.28l-6.72-8.28l-6.02-2.74l-6.3,2.63l-7.19,4.3l-2.43-0.41l-4.8-7.8l-1.81-6.63l2.11-3.1l4.03-3.14h2.94l5.1,1.7l1.69-3.38
	l8.65-3.36l0.13-0.11c1.5-1.28,3.62-2.71,4.27-2.71c1.56,0,6.68-1.68,7.69-2.02l0.33-0.11l3.31-4.96v-10.87l2.81-5.16l3.54-6.07
	l1.01-7.08l0.01-4.78L417.63,486.07z"/>
<path d="M376.32,307.7l-0.61,4.86l1.49,6.69l9,2.08l4.16,2.38l3.91,9.77l8.69,6.69l5.03,5.03l1.86,5.58l1.29,10.33v11.5
	c-0.61,1.16-2.14,3.76-3.49,4.66c-1.74,1.16-4.44,3.29-5.14,3.85l-5.67,1.42l-0.96,5.75H402l5.51,3.67l2.01,2.68l5.62,2.81
	l6.07,0.67l6.37,0.8v-4.04l3.33-3.88l2.92,0.49l1.92,3.2l4.75,1.58l4.25-2.84l3-1.2h4.4l3.38-0.66h2.94l6.35,3.17l4.72,1.37
	l5.59,1.86l5.66,8.17l1.14,2.05l-0.84,1.79l-1.54,5.57l-1.05,6.8l2.06,4.64l1.4,4.67c-0.15,1.47-0.56,4.91-0.92,5.98
	c-0.16,0.48-0.59,1.14-1.01,1.77c-0.74,1.13-1.5,2.3-1.5,3.46c0,0.51-0.07,0.97-0.16,1.55c-0.15,0.98-0.33,2.19-0.33,4.35
	c0,2.87,1.23,4.55,2.42,6.18c0.4,0.54,0.8,1.1,1.17,1.71c0.96,1.59,1.94,2.29,2.73,2.85c0.51,0.36,0.92,0.65,1.23,1.13
	c0.57,0.85,1.73,1.45,2.96,2.08c0.58,0.3,1.17,0.6,1.67,0.92l-0.76,1.9l-0.96,2.41c-0.01,0.02-0.03,0.04-0.05,0.05
	c-0.85,1.07-3.07,3.38-4.98,3.38c-2.85,0-2.85,0-5.21-0.47c-2.41-0.48-6.32-1.46-7.75-1.94c-1.14-0.38-4.52-2.21-5.73-2.88
	l-5.76-2.11l-11.29,1.03l-5.62,3.57l-5.87,4.88c-0.92,0.33-5.52,1.93-8.49,2.35c-2.49,0.36-4.07,1.63-5.22,2.56
	c-0.54,0.43-1,0.81-1.35,0.93c-1.6,0.53-3.98,2.41-4.24,2.63l-0.25,0.2l-1.17,4.1l2.03,4.56v4.14l-0.95,6.62l-3.36,5.76l-3.07,5.63
	v10.77l-2.59,3.89c-2.26,0.74-5.83,1.81-6.74,1.81c-1.63,0-4.43,2.23-5.44,3.08l-9.06,3.52l-1.26,2.52l-3.76-1.25h-3.95l-4.7,3.65
	l-2.21,3.15l-3.23-1.38v-8.42l-5.62-3.51c-2.37-2.38-4.87-5.51-4.87-6.43c0-2.31-4.49-5.05-6.42-6.12l-10.55-3.97l-9.05-5.17
	c-2.06-1.61-4.94-4.15-5.89-5.53c-0.14-0.2-0.23-0.37-0.28-0.51c-0.37-1.11-1.36-2.6-2.41-4.17c-0.93-1.4-1.89-2.84-2.18-3.7
	c-0.64-1.91-2.58-9.69-2.6-9.76l-3.29-7.92l-2.6-8.45l-0.4-2.8h0l-0.18-1.28l-0.1-0.7h0l-0.59-4.16l1.88-10.03l8.44-8.44l4.01-9.36
	l2.06-6.85l-0.67-7.41l-1.91-6.44l2.39-6.57l6.22-3.73c0.76-0.42,7.47-4.11,8.88-6.23c1.01-1.52,2.35-4.77,3-6.42
	c0.19-0.47,0.32-0.82,0.37-0.95l1.18-2.37l1.91-1.43l4.41,2.52l6.48-2.16l5.95-4.46l-2.2-6.59l-3.23-6.48v-5.67l-0.03-0.24
	c-0.01-0.03-0.66-2.64-1.3-5.86c-0.27-1.36-0.88-2.29-1.81-2.74c-0.6-0.3-1.22-0.33-1.72-0.26l-0.48-1.94l-5.3-4.64l-1.15-2.88
	v-10.58l-1.93-3.21l1.18-8.24l4.91-1.84l7.99-8.66l4.84-4.15l0.74-6.27l4.9,3.27L376.32,307.7z"/>
<path d="M183.88,329.75l2.46-0.57l17.64-14.93l-0.7-6.32l0.62-5.55l4.98-7.47l3.6-2.06l3.05,4.27H221l4.19-3.49l5.63-4.38h3.59
	l6.69-1.46l2.05-6.82l2.65-2.12l4.77,1.19l3.65,0.03l0.85-3.38l0.68-7.95l1.25-5.01l2.93-4.69l7.23-0.6l2.34,0.47v4.01l3,6.01
	l5.77,0l6.2,0.62l4.74,4.74l0.63,7.55l0.79,6.31l4.63-0.93l2.54-2.54h5.02l3.42,4.1l4.37-1.46l4.51,0.56l3.69,6.76l5.68,6.42h6.63
	l3.39-2.03l12.91-3.23l10.08-1.26l4.92,3.07l1.03,0.69l-0.76,6.5l-4.29,3.68l-7.79,8.43l-5.58,2.09l-1.45,10.12l2.01,3.35v10.41
	l1.47,3.68l5.19,4.54l0.88,3.53l1.12-0.56c0.01,0,0.66-0.29,1.12-0.07c0.42,0.21,0.63,0.84,0.73,1.34c0.57,2.87,1.16,5.27,1.29,5.83
	v6.02v0l3.35,6.71l1.72,5.15l-4.54,3.41l-5.32,1.77l-4.77-2.73l-3.34,2.5l-1.42,2.83l-0.04,0.1c-0.02,0.05-1.94,5.16-3.17,7.01
	c-0.86,1.28-5.47,4.1-8.21,5.6l-6.86,4.12l-2.86,7.86l2.03,6.78l0.63,6.92l-1.9,6.32l-3.84,8.95l-8.61,8.61l-2.06,10.96l0.63,4.38
	l-6.39,0.55l-8.27,0.46l-3.28-5.15l-6.52-3.26l-6.14,2.05h-4.37l-0.38-3.06l-1.97-6.46l-0.5-7l-2.41-4.22l-4.44,0.56l-1.49-0.27
	v-1.74l-0.49-0.29c-0.02-0.01-2.46-1.47-3.9-2.43c-1.09-0.72-2.63-1.43-3.49-1.8v-2.22l3.61-2.26l3.94-4.92l8.19-5.12l0-4.57
	l-0.48-6.25l0.95-4.28l0.02-14.72l-1.37-2.73h-3.38l-3.13,2.09c-2.44,1.33-5.69,2.61-6.66,2.37c-1.71-0.43-4.43-0.84-5.26-0.97
	l-5.13-3.73l-4.82-5.29l-4.39-5.36l-2.46-3.44l-3.05-2.58l-3.91-4.88l-4.43-4.92l-6.15-3.96l-4.34,2.72l-4.93,1.35l-2.84-1.22
	l-4.16-6.48l-1.51-7.05l-6.35-5.29l-4.38-0.97l-2.13-2.13l-2.31-5.07L183.88,329.75z"/>
<path d="M154.63,558.37l-1.09-6.01l3.35-2.23l6.73-4.04l4.05-5.4l3.27-5.88l7.96-7.3l2.76-9.65l-1.38-10.38l-2.98-2.98l-3.88-1.94
	l-2.44-3.05l-2.45-4.29v-3.91l2.99-2.99l4.23-6.31v-6.08l-4.31-2.87l-2.9-2.32v-5.18l-3.15-3.15l-4.92-0.7l-5.58-0.01l-2.98-3.57
	l-6.54-5.26l-3.57-6.55l2.33-4.07c0.03-0.05,3.29-5.26,4.58-7.19c1.28-1.92,3.23-4.52,3.25-4.55l0.2-0.27v-3.45l2.43-7.29l4.78-2.05
	v-7.22l-1.3-4.69l0.62-6.76l3.12-4.37l2.7-6.01l3.54-5.66l-2.11-4.23v-5.25l4.18-4.18l4.34-2.17v-5.42l-2.62-5.9v-3.54l2.04-5.44
	l-2.7-6.74v-3.89l6.64-4.83l4.12-0.95l0.04,0.76l2.61,5.75l2.79,2.79l4.47,0.99l5.45,4.54l1.44,6.73l4.69,7.3l4.05,1.73l5.75-1.57
	l3.67-2.24l4.76,3.03l4.3,4.77l3.94,4.92l2.99,2.52l2.42,3.39l4.46,5.45l4.92,5.41l5.76,4.22l0.25,0.04c0,0,0.02,0,0.04,0.01
	c0.41,0.06,3.49,0.51,5.27,0.96c2.23,0.56,7.14-2.03,8.17-2.6l2.7-1.8h1.54l0.6,1.2v13.92l-0.99,4.46l0.5,6.47v3.38l-7.54,4.71
	l-3.94,4.92l-4.26,2.66v4.67l0.63,0.25c0.02,0.01,2.38,0.96,3.75,1.87c1.09,0.73,2.69,1.71,3.49,2.19v0.25v2.03v1.26l-14.26,20.17
	v5.96l2.4,4.8l-0.84,3.36l-1.53,1.91h-4.31l-3.7,3.08l1.18,5.31l2.5,2.5l0.66,1.98l-3.16,1.97l-6.55,2.02l-2.88,3.46v3.84
	l-3.44,2.95v2.29l-0.95,3.31l-0.04,5.34l-3.37,4.33l-1.53,6.61l-0.04,0.23l0.04,0.22c0.01,0.07,0.32,1.66-1.33,4.14
	c-1.6,2.4-1.99,3.92-2.3,5.15c-0.09,0.34-0.17,0.67-0.28,1c-0.45,1.35-0.86,5.03-0.99,6.25l-4.96,4.96v9.43l-2.63,3.51l-4.89,2.93
	l-3.06,3.57l-3.8,6.16l-3.48,0.77l-3.1-3.1l-4.67-4.15l-11.24-1.02l-8.32,0c-0.02,0-1.36-0.06-3.17-0.17c-0.02,0-0.04,0-0.06,0
	c-0.29-0.02-0.59-0.04-0.89-0.06c-0.02,0-0.05,0-0.07,0c-0.32-0.02-0.64-0.04-0.97-0.07c0.06-0.48,0.06-0.81,0.06-0.83l-0.75-5.32
	L154.63,558.37z"/>
<path d="M296.43,737.67l-1.34,8.75l-1.9,5.07l-3.83,6.37l-4.99,4.99L277,765.3l-10.49-2.62l-6.12,2.04l-12.98,2.6l-4.81,0.6
	l-4.01-3.44l-1.31-5.25l-3.95-3.29l-1.71-5.7l2.98-2.99l3.37-7.42l1.38-3.46V729l-5.72-2.86l-2.15-1.61v-3.78l-5.63-7.04l-3.44-1.38
	l-5-3.12l-4.64-6.63l-9.06-3.88l-1.13-2.83l-2.02-8.07l-3.89-3.89l-0.59-4.7l1.34-4.68l-2.8-9.09l-4.1-3.41l-5.17-5.17l-4.62-7.27
	l-5.88-4.57l-3.18-5.72l-3.81-5.1v-6.88l-2.64-9.37l-0.68-7.43l-6.1-7.45l-7.94-5.99l-5.12-6.39l-5.2-7.79l-1.64-3.82l3.14-2.62
	l4.31-0.62l6.08-2.01l0.24-0.12c1.06-0.71,4.16-2.66,5.66-3.16c0.67-0.22,1.52-0.77,2.09-2.08c2.92,0.22,5.56,0.33,5.63,0.33l8.27,0
	l10.49,0.95l4.14,3.68l3.21,3.21l0.94,6.55l2.59,7.83l0.23,0.18c0.02,0.02,2.26,1.83,3.14,4.02c1.09,2.73,1.74,3.83,5.27,6.34
	c3.39,2.42,5.37,3.91,5.39,3.92l0.13,0.1l5.94,1.98l5.14,3.27l6.77,9.67l4.87,3.85l0.31,0.02c0.3,0.02,7.43,0.49,8.92,0.49
	c1.48,0,10.96-0.47,11.36-0.49l0.38-0.02l0.27-0.27c1.56-1.56,4.16-3.9,5.02-4.19c1.54-0.51,7.46-4.71,8.63-5.55l0.24-0.17
	l2.47-6.42l4.32-3.46l3.25,0.81l3.87,3.01l0,9.66h-0.06l0.06,1.03v0.97h0.05l0.6,10.86l1.44,4.42l6.24,6.24l5.75,1.92l3.71,6.8
	l2.42,5.44l-2.08,3.65h-4.35l-4.59-3.28h-5.09l-5.91,2.21l-1.23,4.93l4.85,5.93l5.09,3.05l2.94,1.68v2.28l-3.23,1.84l-1.82,4.25
	l2.03,3.05l-0.88,3.96l-1.09,3.27l2.13,4.78l4.07,5.63l3.9,4.88l2.33,3.27l0.92,4.61c-0.01,0.63-0.08,2.06-0.32,3.1
	c-0.04,0.15-0.07,0.29-0.12,0.42c-0.46,1.39-1.41,3.29-1.42,3.31l-0.12,0.25l0.52,6.74c0,0,0.45,3.01,0.85,5.95L296.43,737.67z"/>
<path d="M379.37,780.69l-8.78-4.11l-0.18-0.06c-0.08-0.02-7.85-1.96-9.76-2.6c-1.23-0.41-3.18-2.43-4.09-3.56l-4.43-6.33l-0.6-7.85
	l3.17-3.8l1.46-5.83l-3.97-7.94l0.61-5.5l0.62-1.87c0.64-1.92,1.93-5.16,1.95-5.19l0.15-0.37l-0.15-0.37
	c-0.99-2.47-2.55-6.86-2.55-8.15v-6.32l2.4-4.8l4.16-2.77v-4.44l-6.82,1.7l-4.92,6.33l-2.54,8.88l-3.86,1.45l-1.2-3h-6.7l-1.62,6.46
	l6.13,8.18l2.44,4.87l-1.21,7.26l-4.76,5.35h-3.97c-0.73-0.26-4.01-1.52-6.76-3.72c-3.69-2.95-7.4-1.52-7.55-1.46l-0.27,0.11
	l-3.3,4.63l-2.79,1.39l-2.79-6.13l-0.73-5.87l-5.33-0.67c-0.07-0.52-0.15-1.04-0.22-1.54c-0.01-0.05-0.01-0.1-0.02-0.14
	c-0.02-0.12-0.03-0.23-0.05-0.35c-0.28-1.97-0.52-3.53-0.52-3.53l-0.47-6.12c0.29-0.59,1-2.1,1.41-3.32
	c0.54-1.61,0.54-4.14,0.54-4.25l-1.05-5.32l-2.62-3.66l-3.91-4.88l-3.87-5.33l-1.77-3.97l0.86-2.58l1.1-4.94l-1.9-2.85l1.13-2.64
	l3.66-2.09v-4.6l-3.93-2.24l-4.77-2.86l-4-4.89l0.74-2.94l4.58-1.72h4.09l4.59,3.28h6.15l2.54-4.45c0.01,0,0.02,0,0.03,0
	c0.09,0.01,0.19,0.03,0.29,0.04c0.07,0.01,0.13,0.02,0.2,0.03c0.11,0.01,0.24,0.02,0.36,0.03c0.09,0.01,0.16,0.02,0.26,0.02
	c0.15,0.01,0.32,0.02,0.49,0.03c0.09,0,0.16,0.01,0.26,0.01c0.27,0.01,0.57,0.02,0.89,0.02c0.31,0,0.67-0.02,1.06-0.06
	c2.77-0.26,7.36-1.29,7.96-1.43l8.54-0.95l5.32,2.22l1.7,3.39v9.6l0.93,4.76c-0.1,0.27-0.14,0.59-0.06,0.94
	c0.21,0.9,1.09,1.57,2.76,2.13c2.99,1,5.93,1.49,6.05,1.51l0.42,0.07l4.18-3.14l3.35-1.43l4.47-1.99l3.67-1.84
	c1.52,0.16,4.84,0.56,5.89,0.91c1.35,0.45,5.03,0.87,6.25,0.99l2.55,2.55c0.29,0.76,0.84,2.41,0.84,3.38v1.67l1.34,3.34l5.18-0.58
	l4.79-2.08l6.06-3.26l5.95,1.37c0.41,0.17,2.57,1.08,4.71,2.36c1.82,1.09,3.66,2.48,4.43,3.07v7.54l-1.16,1.54l-2.61,1.57
	l-0.12,0.35c-0.11,0.33-1.06,3.29-0.51,5.48l0.6,2.39l0.38,0.21c0.82,0.46,2.64,1.52,4.07,2.51c0.66,0.46,1.25,0.9,1.61,1.26
	c0.14,0.14,0.31,0.28,0.5,0.42c0.04,0.03,0.08,0.06,0.13,0.1c0.19,0.14,0.4,0.28,0.62,0.42c0.02,0.01,0.05,0.03,0.07,0.04
	c0.21,0.13,0.44,0.26,0.67,0.39c0.05,0.03,0.1,0.06,0.16,0.08c0.25,0.14,0.51,0.27,0.78,0.4c0.04,0.02,0.08,0.04,0.12,0.06
	c0.25,0.12,0.5,0.24,0.74,0.35c0.04,0.02,0.08,0.04,0.12,0.05c0.27,0.12,0.54,0.24,0.8,0.35c0.04,0.02,0.08,0.03,0.11,0.05
	c0.25,0.11,0.48,0.2,0.71,0.3c0.02,0.01,0.03,0.01,0.05,0.02c0.24,0.1,0.46,0.18,0.66,0.26c0.01,0,0.03,0.01,0.04,0.01l-0.99,2.31
	l-3.8,3.8l-4.23,5.79v6.43l1.51,3.53l1,5.48l1.53,2.56l1,2.34l-2.08,0.59l-3.17-0.91l-3.72-0.04c-1.63,0-5.7,2.37-6.91,3.09
	l-0.33,0.2l-2.57,8.74l-0.04,8.38l-3.94,6.88l0,7.21l0.55,10.43L379.37,780.69z"/>
<path d="M525.93,756.89l-4.52,9.69L520,776.84l0.02,0.14c0.05,0.38,1.33,9.26,1.99,11.91c0.53,2.12-1.13,4.38-1.14,4.4l-1.62,2.16
	l8.88-1.97l5.17-6.46h5.54l2.08,3.12l-1.14,4.55l-5.2,5.2l-3.32,8.64l-3.76,7.52l-4.81,1.8l-11.53,2.56l-5.87-1.17l-1.59-3.18
	l1.19-5.37l4.25-6.38l-4.56-5.32l-3.39-1.69l-4.06,3.38l-5.33-1.19l-4.73-2.03l-7.98,0.67l-6.09-1.22l-4.57-5.15l2.84-5.68l4.1-2.34
	h9.25l3.22-2.42l0.77-5.36l-3.57-5.71l-1.01-0.76c0.01-0.01,0.02-0.01,0.03-0.02c0.24-0.14,0.48-0.27,0.71-0.4
	c0.02-0.01,0.03-0.02,0.05-0.03c1.49-0.83,2.69-1.46,3.01-1.63c0.05-0.03,0.08-0.04,0.09-0.05l4.68-2.81h6.89l5.37-3.22l3.04-5.06
	l2.6-3.03h3.97c1.72,0,3.15-0.77,4.66-1.59c0.95-0.51,1.92-1.04,3.03-1.41c0.28-0.09,0.58-0.21,0.88-0.33
	c0.08-0.03,0.16-0.07,0.24-0.1c0.27-0.11,0.54-0.24,0.81-0.36c0.03-0.02,0.07-0.03,0.1-0.05c0.31-0.15,0.61-0.3,0.91-0.46
	c0.09-0.04,0.17-0.09,0.25-0.13c0.25-0.13,0.49-0.26,0.73-0.4c0.04-0.02,0.08-0.04,0.12-0.06l0.36,2.92L525.93,756.89z"/>
<path d="M539.86,702.77l-2.38,5.54l7.74,5.63l4.32,5.56l0.59,6.54c-2.09,2.85-5.45,7.12-6.74,7.98c-2.1,1.4-6.41,3.77-9.28,3.77
	c-3.03,0-7.43-1.87-7.48-1.89l-0.19-0.08h-10.61l-2.81,4.69l4.93,2.46l7.52,3.47c-0.03,0.02-0.05,0.03-0.08,0.05
	c-0.08,0.05-0.17,0.09-0.26,0.14c-0.29,0.16-0.59,0.32-0.9,0.48c-0.13,0.07-0.26,0.13-0.39,0.2c-0.28,0.14-0.57,0.28-0.85,0.41
	c-0.12,0.06-0.25,0.11-0.37,0.17c-0.39,0.17-0.78,0.33-1.13,0.45c-1.28,0.42-2.38,1.02-3.35,1.55c-1.34,0.72-2.5,1.35-3.71,1.35
	h-4.89l-3.25,3.79l-2.92,4.84l-4.47,2.68h-6.89l-5.1,3.06c-0.02,0.01-2.19,1.14-4.6,2.52l-1.82-3.03l-5.73-8.19l-1.94,5.82
	l-0.61,2.99l-4.04,2.69v5.61l-2.4,6.59l-7.12,2.37l-4.04-1.16l-4.73-4.73l0.67-7.34l-4.68-3.12h-17.77l-5.18,5.18v14.37l-3.37,2.81
	c-3.17,0.51-7.93,1.03-9.09,0.65c-2-0.67-8.38-1.95-8.65-2l-0.48-0.1l-0.37,0.32c-2.07,1.78-4.92,3.69-5.91,3.69
	c-0.61,0-2.65-0.76-6.41-2.87l-0.63-11.87v-6.62l3.94-6.88v-8.48l2.31-7.85c2.2-1.3,4.86-2.61,5.55-2.61h3.3l3.58,1.02l4.81-1.38
	l-1.92-4.49l-1.44-2.42l-0.95-5.23l-1.46-3.47v-5.37l3.7-5.08l4.02-4.01l1.48-3.44l3.76-3.77l5.91-5.37l-1.77-4.73l-4.36-5.33
	c-0.27-1.68-0.57-4.2-0.57-5.87c0-0.56,0.03-1.02,0.11-1.33c0.24-0.97,1.01-1.45,2.71-2.44c0.67-0.39,1.43-0.83,2.28-1.4
	c2.67-1.78,4.54-3.92,5.03-4.49l2.17-1.3l4.27-0.95l9.45-4.45l8.64-1.92c2.24,0,6,0.13,6.95,0.44c1.38,0.46,4.2,1.87,4.21,1.87
	l4.39,2.74l4.82-2.14l8.83-1.86l0.73,2.2l4.16,6.31l4.84,3.23h5.6c0.38,0.1,2.01,0.59,2.67,1.91c0.9,1.8,1.38,5.07,1.38,5.1
	l0.06,0.44l5.01,3.34l5.57,0.56l0.32-0.25c0.02-0.02,2.15-1.67,4.1-1.28c1.71,0.34,3.47,1.52,4.18,2.02l0.38,3.02
	c-0.33,0.38-0.69,0.99-0.57,1.73c0.14,0.9,0.91,1.58,2.29,2.04c3.07,1.02,7.98,1.04,8.19,1.04l0.05,0c0.02,0,0.04,0,0.05,0l9.91-1
	l1.9-0.34l0.78,1.55L539.86,702.77z"/>
<path d="M685.43,659.32l8.04,7.42l5.52,3.69l-0.53,4.81l-3.45,2.07l1.42,7.8c-0.01,2.12-0.56,4.62-1.28,4.87
	c-1.43,0.48-4.89,0.13-6.1-0.04l-7.54-0.01l-2.75-3.3v-6.64l-4.33,4.33l-3.76,5l-5.96,0.6l-5.51-1.22l-3.97-3.31l-5.35-0.67
	l-5.96-3.31h-2.88l-6.2,1.82l-1.89-2.36l1.15-4.61l3.19-5.11l0.12-0.29c0.03-0.12,0.71-3.01-1.36-7.85
	c-0.18-0.43-0.33-0.77-0.45-1.05c0-0.32-0.11-0.63-0.18-0.84c-0.76-2.29-3.47-3.7-3.78-3.86l-0.85-0.42l-3.22,5.64v3.79l-1.95,1.95
	l-2.52-0.5c-0.77-0.6-3.66-2.75-6.62-3.93c-2.73-1.09-3.32-3.17-3.34-3.25l-0.09-0.34l-0.28-0.21c-0.11-0.08-2.67-2-4.63-3.31
	c-1.68-1.13-3.96-0.73-5.8-0.42c-0.74,0.13-1.45,0.25-1.97,0.25c-0.8,0-1.88-1.92-2.34-3.27l-3.26-9.12c-0.15-0.67-1.35-6-1.98-7.91
	c-0.44-1.32,0.31-3.74,0.65-4.62l1.86-5.57l-5.21,1.04l-7.12,5.7v7.87l3.37,9.42l3.19,7.02v4.87l-1.31,3.94v6.03l3.12,1.56
	l3.77,2.51l3.9,4.54l5.68,5.68l0.51,3.05l-4.58,3.81l4.49,2.69l3.45,1.17v1.49l-3.51,3.51l-5.66,2.52l-10.38,3.66l-1.34-2.24
	l1.42-6.39l-4.66-1.55l-3.13-2.09l1.81-4.22l-2.4-5.59h-4.48l-5.01-1.11v-4.46l-4.38-1.75l-0.43,0.27c-1.89,1.18-5.5,2.9-7.1,2.5
	c-2.5-0.63-6.04-0.68-6.7-0.68l-3.54-0.71l-5.93,3.29l-10.22-1.36l-1.97,3.95l6.43,5.71l4.21,4.82l-1.14,0.21l-9.78,0.98
	c-0.09,0-0.36,0-0.75-0.02c-0.01,0-0.03,0-0.05,0c-0.1,0-0.22-0.01-0.34-0.01c-0.03,0-0.06,0-0.09,0c-0.11,0-0.23-0.01-0.36-0.02
	c-0.04,0-0.07,0-0.11-0.01c-0.12-0.01-0.25-0.01-0.39-0.02c-0.05,0-0.09-0.01-0.14-0.01c-0.13-0.01-0.27-0.02-0.4-0.03
	c-0.05,0-0.11-0.01-0.16-0.01c-0.14-0.01-0.28-0.02-0.42-0.04c-0.06-0.01-0.11-0.01-0.17-0.02c-0.14-0.01-0.28-0.03-0.42-0.04
	c-0.06-0.01-0.12-0.01-0.18-0.02c-0.14-0.02-0.28-0.03-0.43-0.05c-0.06-0.01-0.13-0.02-0.19-0.02c-0.14-0.02-0.28-0.04-0.42-0.06
	c-0.07-0.01-0.13-0.02-0.2-0.03c-0.14-0.02-0.28-0.05-0.42-0.07c-0.06-0.01-0.13-0.02-0.19-0.03c-0.14-0.03-0.28-0.06-0.42-0.09
	c-0.06-0.01-0.12-0.02-0.17-0.04c-0.15-0.03-0.29-0.07-0.43-0.11c-0.04-0.01-0.09-0.02-0.13-0.03c-0.18-0.05-0.36-0.1-0.53-0.16
	c-0.6-0.2-0.84-0.38-0.92-0.46c0.05-0.08,0.14-0.19,0.22-0.25l0.46-0.35l-0.62-4.92l-0.32-0.25c-0.11-0.09-2.68-2.13-5.35-2.66
	c-2.32-0.47-4.55,0.85-5.39,1.42l-4.29-0.43l-3.86-2.57c-0.17-1.03-0.66-3.59-1.5-5.27c-0.07-0.15-0.16-0.29-0.24-0.43
	c-1.29-2.02-3.79-2.55-3.9-2.57l-5.3-0.02l-4.01-2.67l-3.75-5.63l-0.96-2.88l2.86-4.5l2.58-8.64c0.5-1.83,2.99-11.03,2.99-12.56
	c0-0.1-0.01-0.23-0.03-0.37c-0.01-0.08-0.03-0.17-0.04-0.26c-0.01-0.06-0.02-0.12-0.03-0.19c-0.02-0.12-0.05-0.26-0.08-0.39
	c-0.01-0.04-0.02-0.08-0.03-0.13c-0.04-0.16-0.08-0.33-0.12-0.51c0,0,0-0.01,0-0.01c-0.13-0.51-0.3-1.1-0.5-1.78
	c-0.05-0.16-0.09-0.31-0.14-0.47c-0.03-0.11-0.06-0.21-0.1-0.32c-0.27-0.85-0.54-1.68-0.79-2.4l4.15-0.57l6.07-3.54l0.04-0.03
	l0.04-0.02l3.09-2.21l3.82,0.76l0.37,2.19v7.67l3.3,3.86l3.11,1.78c0.14,1.65,0.86,3.85,2.94,3.85h6.22l3.97-2.84l0.1-0.3
	c0-0.01,0.47-1.37,1.82-3.16c0.15-0.2,0.31-0.39,0.47-0.59c1.16-1.37,2.66-2.65,3.14-3.04l3.15-0.9l5.37-0.98
	c0.68-0.1,4.09-0.68,4.74-2.64c0.53-1.58,0.54-6.19,0.54-6.71v-0.19l-2.1-5.26l-3.96-4.46c-0.08-0.16-0.17-0.35-0.25-0.53
	c-0.05-0.1-0.1-0.22-0.15-0.34c-0.05-0.1-0.09-0.2-0.14-0.31c-0.04-0.1-0.09-0.2-0.13-0.3c-0.07-0.16-0.13-0.31-0.19-0.47
	c-0.02-0.05-0.04-0.09-0.05-0.14c-0.28-0.71-0.54-1.45-0.7-2.09c0,0,0-0.01,0-0.01c-0.05-0.21-0.1-0.41-0.13-0.6
	c-0.03-0.19-0.05-0.38-0.05-0.54c0-1.78,0.92-4.57,0.92-4.57c0.01-0.04,1.46-3.88,2.87-6.23c0.33-0.56,0.76-1.09,1.21-1.58
	c1.34-1.47,2.9-2.52,2.92-2.53l0.38-0.25l0.46-3.67l3.91-0.78l5.89,2.45l6.19-1.03l5.5-1.98c0.5-0.08,2.94-0.46,4.17-0.46
	c0.96,0,4.84,1.17,7.06,1.92l0.21,0.07l4.5-0.56l0.24-0.24c0.07-0.07,1.65-1.66,2.21-3.34c0.55-1.64-1.85-5.66-3.42-8.05l-0.44-3.97
	l0.93-2.78l1.15-4.01l-2.87-2.87c-0.01-0.01-0.7-0.74-0.7-1.76c0-1.61-1.62-4.19-2.08-4.89c-0.08-0.23-0.38-1.3-0.38-3.96
	c0-3.07-1.96-4.8-2.95-5.48v-2.56l2.27-3.18l2.59-7.13l0.12-1.97l3.98-2.98l4.03-3.14l6.75,1.8c0.22,0.14,0.71,0.45,1.31,0.85
	c0.9,0.6,2.05,1.39,2.93,2.1c0.11,0.09,0.22,0.18,0.33,0.27c0.21,0.18,0.39,0.34,0.55,0.5c1.46,1.46,4.56,3.28,5.06,3.57
	c0.03,0.02,0.06,0.03,0.06,0.04l0.27,0.15l6.92-0.53l0.27-0.14v0l1.54-0.84l0.29-0.16v0l3.31-1.8l6.47-0.46l5.61,1.87
	c0.11,0.07,0.25,0.15,0.39,0.24c1.59,0.98,4.7,2.96,5.72,3.98c1.51,1.51,7.81,5.58,8.53,6.04l0.22,0.11c1.2,0.4,4.55,1.6,5.66,2.34
	c0.1,0.06,0.22,0.13,0.35,0.19c0.04,0.02,0.1,0.04,0.14,0.06c0.1,0.04,0.2,0.09,0.32,0.13c0.06,0.02,0.14,0.05,0.2,0.07
	c0.11,0.04,0.23,0.08,0.35,0.11c0.08,0.02,0.16,0.05,0.24,0.07c0.13,0.04,0.25,0.07,0.39,0.11c0.09,0.02,0.18,0.05,0.27,0.07
	c0.14,0.03,0.28,0.07,0.42,0.1c0.1,0.02,0.2,0.04,0.29,0.07c0.15,0.03,0.3,0.07,0.45,0.1c0.1,0.02,0.21,0.04,0.31,0.06
	c0.15,0.03,0.31,0.06,0.47,0.09c0.11,0.02,0.21,0.04,0.32,0.06c0.16,0.03,0.32,0.06,0.49,0.09c0.1,0.02,0.2,0.04,0.3,0.05
	c0.17,0.03,0.34,0.06,0.51,0.08c0.1,0.02,0.19,0.03,0.28,0.05c0.18,0.03,0.35,0.06,0.53,0.08c0.08,0.01,0.16,0.03,0.24,0.04
	c0.19,0.03,0.37,0.06,0.55,0.08c0.06,0.01,0.12,0.02,0.18,0.03c0.21,0.03,0.41,0.06,0.61,0.09c0.02,0,0.05,0.01,0.08,0.01
	c0.22,0.03,0.43,0.06,0.63,0.08c0,0,0,0,0,0c0.38,0.05,0.7,0.09,0.96,0.12l-0.44,1.66l-2.71,5.88c-1.04,0.3-3.24,1.21-3.72,3.61
	c-0.05,0.23-0.11,0.47-0.2,0.72c-0.01,0.02-0.02,0.04-0.02,0.06c-0.59,1.73-1.9,3.76-2.38,4.47l-2.51,0.84l-8.29,0.52l-3.88,7.2
	l1,5.01l-0.88,2.63l-2.16,4.32l2.68,5.37l0.28,0.55h0.6c0.04,0,0.76,0.03,1.38,0.7c0.09,0.1,0.18,0.2,0.26,0.33
	c0.51,0.76,1.43,1.44,2.32,2.1c0.66,0.49,1.9,1.39,1.93,1.78c0,1.5,1.49,5.02,1.97,6.11v6.18l1.56,6.37l5.67,6.7l6.04,3.52
	l1.97,1.19v4.84c0,0.58-0.21,1.22-0.44,1.9c-0.27,0.8-0.54,1.63-0.54,2.53c0,1.68,2.18,5.24,2.61,5.94l0.11,0.18l0.18,0.12
	c1.85,1.23,6.33,4.1,7.93,4.1c0.75,0,1.15-0.2,1.52-0.43c0.05-0.01,0.36-0.03,1.61,0.38c2.88,0.96,6.28,2.42,6.3,2.43l1.24,0.56
	l-0.7,1.16L685.43,659.32z"/>
<path d="M774.66,588.44l-1.49,5.22l-1.94,9.69l-4.33,8.04l-9.87,3.08l-11.14-1.96l-5.15,1.47l-3.12,4.37l-3.53-0.59l-7.95,1.99
	h-4.12l-6.51,4.34l-0.77,4.64l3.31,7.95v9.4l-1.59,3.17h-3.35l-1.93-3.85l-5.6-0.8l-5.92,5.92l-5.34-0.59l-4.72-1.35l-5.27,0.75
	l-0.79,1.32l-1.48-0.66c-0.14-0.06-3.52-1.5-6.47-2.49c-0.25-0.08-0.48-0.16-0.69-0.22c-0.14-0.04-0.26-0.07-0.38-0.1
	c-0.06-0.02-0.14-0.04-0.19-0.05c-0.13-0.03-0.24-0.05-0.35-0.07c-0.04-0.01-0.09-0.02-0.13-0.02c-0.11-0.01-0.2-0.02-0.29-0.02
	c-0.04,0-0.08-0.01-0.11-0.01c-0.01,0-0.03,0-0.04,0c-0.02,0-0.03,0.01-0.05,0.01c-0.2,0-0.39,0.03-0.55,0.08
	c-0.02,0-0.03,0.01-0.05,0.02c-0.17,0.06-0.33,0.13-0.49,0.23c-0.12,0.08-0.17,0.1-0.42,0.1c-0.74-0.04-3.99-1.89-6.65-3.65
	c-1.08-1.75-2.2-3.99-2.2-4.7c0-0.58,0.21-1.22,0.44-1.9c0.27-0.8,0.54-1.63,0.54-2.53v-5.98l-8.71-5.13l-5.15-6.09l-1.39-5.56
	v-6.48l-0.09-0.19c-0.78-1.76-1.88-4.63-1.88-5.5c0-1.37-1.34-2.35-2.75-3.39c-0.75-0.55-1.53-1.13-1.84-1.59
	c-0.77-1.15-1.84-1.66-2.63-1.84l-2-4l1.74-3.49l1.12-3.33l-0.97-4.83l3.01-5.59l7.31-0.46l3.51-1.14l0.19-0.26
	c0.11-0.15,2.59-3.65,3.12-6.29c0.35-1.74,2.61-2.16,2.63-2.16l0.52-0.09l3.17-6.88l0.72-2.64l7.09-1.25l5.46-3.27l0.09-0.43
	c0.37-1.83,1.18-5.08,1.82-6.04c0.88-1.32,4.37-5.27,4.79-5.75l3.79-3.31c0.58-0.27,1.94-0.82,2.89-0.82c1.54,0,4.47-0.48,4.59-0.51
	l0.32-0.05l3.41-3.41l5.39-0.45l3.95,0.88l4.56,5.47l0.26,0.31l0,0l1.3,1.56l-0.03-0.87c1.45,0.78,3.87,2.05,4.96,2.42
	c1.49,0.5,5.25,0.54,6.09,0.54l3.77,0.94l5.43,1.97c1.39,0.4,3.07,1.26,3.26,1.81c0.36,1.09,1.28,2.07,2.17,3.02
	c0.54,0.58,1.05,1.12,1.39,1.64c0.85,1.27,3.37,3.02,4.58,3.82c0.18,0.68,1.18,1.51,4.62,3.39l5.01,2.73l1.37,6.37l1.03,7.22
	l5.65,5.65l6.42,4.95l6.94,7.78L774.66,588.44z"/>
<path d="M858.6,519.82l-4.08,4.76l-0.68,5.45l-1.89,5.67l-4.28,6.12l-8.42,1.81l-4.14-2.37l-2.82-2.82h-3.71l-1.63,4.09v3.89
	l-3.28,6.56v3.55l-2.41,1.21l-2.84,7.09v2.16c0,1.18-1.16,1.63-1.28,1.67l-3.35,1.98l-2.75,0.69l-5.73,5.73l-3.43-0.57l-5.09-0.01
	l-3.08,2.31l-2.05,4.1l-2.38,4.16l-4.61,0.58l-4-0.67l-2.5,0.62l-7.7-8.63l-6.48-5.01l-5.13-5.13l-0.95-6.62l-1.57-7.33l-5.81-3.17
	c-0.78-0.43-1.4-0.78-1.89-1.07h0.96l-2.96-1.85c-1.45-0.91-3.99-2.7-4.62-3.64c-0.44-0.66-1.03-1.29-1.6-1.9
	c-0.74-0.79-1.5-1.61-1.73-2.29c-0.63-1.88-3.95-2.92-4.54-3.08l-5.41-1.97l-4.04-1.01l-0.24-0.03c-1.65,0-4.62-0.12-5.59-0.44
	c-0.85-0.28-2.93-1.36-4.44-2.17c-0.43-0.23-0.83-0.45-1.13-0.61l-0.1-0.12l-0.03-0.87c0.5-1.18,2.93-6.86,3.38-8.23
	c0.41-1.24,0.81-3.67,0.96-4.66c1.49-1.02,3.33-2.03,3.99-2.03c1.54,0,4.47-0.48,4.59-0.51l0.18-0.03l4.17-2.38l-0.59-5.28
	l-2.82-5.16l2.15-5.16l4.44-2.66l5.37-0.49l5.09-2.54l4.94-3.28l0.53-6.96v-7.79l-3.93-3.94v-3.75l2.72-0.78l0.2-0.08
	c0.57-0.31,5.58-3.06,7.12-4.6c1.37-1.37,3.72-2.79,3.74-2.8l4.3-3.74l0.85-3.07l4.75,1.19l8.96,0.03l6.67-2.67l4.07-1.02l0.49,4.37
	l-1.73,2.31l-1.84,3.63l6.82,3.78l5.89,2.62l8.48,3.91l6.28,3.77l3.79,6.94l4.68,9.36l5.4,4.72l8.32,4.2l11.36-0.67h5.18l1.06,3.19
	l1.36,6.79l5.37,5.37l1.59,2.65L858.6,519.82z"/>
<path d="M355.63,863.78l0.13,0.23c1.1,1.47,2.97,4.17,3.29,5.13c0.31,0.94,0.43,4.07,0.44,5.93l-1.37,4.56l-4.2,4.67
	c-1.21,0.87-3.77,2.93-3.77,4.68c0,1.8,2.7,3.14,4.21,3.74l1.62,3.23c-0.43,1.3-1.19,2.73-1.7,2.9c-1.38,0.46-4.7,0.93-6.08,0.93
	c-0.51,0-1.96-1.17-3.08-2.49l-2.13-4.79l-0.53-0.09c-0.03,0-3.02-0.5-6.93-0.99c-3.87-0.49-5.13,2.01-5.89,3.5
	c-0.17,0.33-0.32,0.64-0.48,0.88c-0.47,0.7-2.85,1.61-4.76,2.03l-4.99,0.91c-1.44-1.08-3.01-2.52-3.23-3.19
	c-0.32-0.96-0.44-3.94-0.44-5.59l-1.01-4.64c-0.78-3.53-1.97-4.68-2.76-5.05c-0.74-1.35-1.65-3.32-1.65-4.08
	c0-0.77,1.48-4.19,2.85-6.93l0.14-0.27l-0.64-5.11h-4.33l-9.5,1.49l-0.12,0.03c-0.15,0.04-3.72,1.08-5.84,3.21
	c-1.88,1.88-1.03,4.37-0.35,6.37c0.23,0.68,0.45,1.33,0.57,1.92c0.42,2.1,1.49,4.47,1.89,5.33l-1.28,5.57
	c-2.47,1.1-5.28,2.17-6.02,2.17c-0.23,0-0.58,0.01-1.02,0.03c-1.87,0.06-6.84,0.23-8.22-0.81c-1.72-1.29-4.39-2.2-5.37-2.51
	l-4.34-6.75l-4.6-3.07c-0.48-0.33-0.74-2.75-0.57-5.12l2.45-2.45l0.04-0.35c0.02-0.18,0.5-4.5,0.5-6.01c0-1.75-2.24-4.53-2.65-5.01
	l-3.77-5.19l-0.47-5.14l-3.57-9.28l-0.11-0.13c-0.03-0.03-2.92-3.41-3.86-4.82c-0.33-0.49-0.83-1.1-1.36-1.75
	c-0.84-1.02-2.41-2.93-2.41-3.6v-4.54l3.22-3.68l4.6-5.63l1.01-7.07l1.81-5.42l5.32-2.66h5.85l2.36-5.91l-1.51-4.02l1.31-5.67
	l7.44-4.18l6.49-2.78l5.49,1.83c0.2,0.08,4.81,1.92,6.37,2.45c0.14,0.18,0.87,1.42,0.87,7.44v7.1l-2.73,4.56l-6.04,5.53l-0.06,0.32
	c-0.1,0.51-1,5.06-1,6.59c0,1.5,0.89,7.79,0.99,8.5l0.06,0.39l5.19,4.15c0.18,0.16,4.5,3.99,6.01,5c1.27,0.85,3.12,1.35,3.91,1.54
	l2.62,3.5l1.58,5.28l6.26,1.71l0.3-0.11c0.17-0.06,4.17-1.59,7.24-4.66c1.34-1.34,1.79-1.79,1.76-2.19c0.07-0.1,0.17-0.21,0.28-0.35
	c1.46-1.83,2.38-2.83,2.72-3.2l2.56-0.85h6.67l9.17,0.97l10.47,3.81l3.91,4.35l-1.32,5.74l-3.37,5.77l-1.05,2.59l-0.06,0.23
	c-0.02,0.14-0.5,3.53-0.5,5.06C354.57,861.09,355.52,863.51,355.63,863.78z"/>
<path d="M329.94,795.68c-1.65,1.1-3.13,3.99-3.29,4.32l-0.21,0.42l2.5,5.63l7.16-1.79l1.14-2.27l2.14-2.57l2.7-0.39l3.39,2.12
	l2.72,5.44v4.46l2.1,3.67l0.09,0.13c0.08,0.1,2.03,2.53,4.5,5c0.39,0.39,0.85,0.98,0.79,1.5c-0.06,0.51-0.61,0.87-0.67,0.92
	l-3.18,2.27h-5.84l-4.71-2.35l-5.84-2.13l-4.67,1.56l-6.52,0.93c-0.81-0.36-3.34-1.49-4.5-2.26c-0.2-0.14-0.44-0.29-0.71-0.46
	c-1.58-1.01-4.22-2.71-5.38-4.63c-1.24-2.07-1.75-4.99-1.82-5.46v-5.48c0.56-0.7,2.06-2.6,3.24-4.18c1.21-1.61,1.55-2.69,1.64-3.21
	l2.83-4.73l2.43-3.89l3.19-4.1l6.3-1.35l2.95,0.74v4.45l-1.38,3.69C332.3,792.92,330.85,795.07,329.94,795.68z"/>
<path d="M666.31,789.31c-0.12,0.37-1.03,1.18-1.81,1.72l-2.88,1.08l-1.5,3l3.31,2.94l0.84,2.81l-0.23,2.1l-3.19,0.98l-3.46-2.21
	h-5.06l-3.77,1.37l-2.69,1.63l-0.79,3.96l5.53,0.62l4.99,0.45l1.54,1.92l0.94,5.65l2.03,5.13l4.24,5.71l-1.18,3.54l-2.37,1.19h-6.63
	l-1.88-2.64c0.33-1.36,0.9-5.13-1.86-7.89c-0.4-0.4-1.63-1.62-2.82-1c-1.25,0.65-1.1,2.84-0.87,4.19l-0.41,3.29l-2.54,1.46
	l-1.92-0.96v-5.28c0-1.8-1.88-3.77-2.26-4.15l-0.36-0.36l-0.51,0.08c-0.13,0.02-3.29,0.56-4.97,2.25c-0.88,0.88-1.16,1.96-0.79,3.05
	c0.16,0.48,0.41,0.85,0.59,1.08l0.91,3.64l0.46,4.12l-1.33,3.54c-0.33,0.34-1.65,1.49-4.54,1.49c-2.08,0-2.58,0-2.77,0.54
	c-1.68,0.35-2.43,0.77-2.65,1.49c-0.03,0.1-0.05,0.2-0.05,0.3l-1.47,2.94l0.57,3.96l2.57,4.12l2.19,2.75l3.91,1.68l4.74-0.47
	l3.13,2.73l-1.05,3.49l-2.93-0.37l-4.35-2.18l-2.72,2.18l-5.6,0.47l-5.42,1.99l3.22,4.5l2.69,2.71l-0.29,1.77
	c-1.3,0.27-4.24,0.82-6.01,0.82c-1.9,0-3.06,0.94-4,1.7c-0.46,0.37-0.85,0.69-1.23,0.82c-0.77,0.26-2.58-0.1-3.69-0.46l-4.28-2.57
	l0.41-4.52l2.53-3.55l-0.65-4.58l-3.99-0.57l-5.29-3.09c-0.13-1.45-0.3-4.25,0.03-5.54c0.27-1.08,2.04-1.61,2.64-1.72l0.59-0.1
	l1.96-5.87l-4.78-2.05l-6.89,4.43l-2.52-1.08l-0.72-2.51l3.56-4.74l-5.73-1.43l-4.34,1.93l-2.28-0.98l0.72-3.24l4.43-3.1l6.86-1.47
	l5.88-3.74l1.59-5.32c0.1-0.42,1.01-4.1,1.01-5.65c0-1.48,0-4.57-1.02-8.14c-1.07-3.75-4.21-5.88-4.34-5.97l-0.33-0.22l-3.96,0.66
	l-1.13,3.97l-1.3,3.46l-4.82,1.32l-8.14,0.51l-2.43,2.43l-1.52,6.06l-1.57,3.14l-3.2-0.71l-1.73-3.47l-1.88-4.23v-5.05l-6.01-1.09
	l-3.12-2.23l-4.15-5.99v-9.39l1.87-7.01l7.26-7.75l5.31-6.76l4.18-2.79l4.04-1.34c0.97,0.22,4.33,0.99,5.53,1.39
	c0.65,0.22,1.73,0.82,2.78,1.4c1.18,0.66,2.29,1.27,3.12,1.55c0.85,0.29,1.97,1.45,2.47,2.11l0.3,0.4h3.92l2.46-2.95h3.94l2.32,3.24
	l5.49,2.49l1.84,1.84l2.97,1.81l4.73-0.79l-2.63-4.6l-2.43-7.28c-0.53-1.58-4.07-3.88-5.55-4.79l-2.3-5.97l-0.94-6.57
	c0.14-0.49,0.58-1.89,1.29-2.95c0.54-0.81,2.84-1.96,4.36-2.54l5.12-0.93l6.44,1.49l6.04-1.65l1.79-2.99l0.5-4.46
	c0.32-0.61,1.6-2.93,3.18-4.51c1.71-1.71,4.35-2.18,4.38-2.18l1.63-0.53c1.62-0.54,2.25-1.12,2.36-1.23l0.29-0.29v-5.05l-1.53-3.57
	l-1.37-5.03l1.25-3.33l4.05-2.7l3.1-1.03l4.51,0.6l3.27,1.78l3.79,4.67l-1.98,5.95c-1.27,0.56-5.08,2.23-6.2,2.79
	c-1.64,0.82-2.52,2.76-2.52,4.17c0,0.67-0.4,3.69-0.65,5.43l-0.06,0.43l2.89,3.62l5.64,5l3.83,4.47l2.1,3.59l-0.27,4l-2.19,0.94
	l-1.14,4.58l0.01,0.17c0.01,0.16,0.34,4.03,0.68,5.41c0.28,1.1-0.03,5.17-0.31,6c-0.32,0.96-0.17,3.81-0.08,5.18l-2.7,2.7
	l-2.95,3.61l-1.49,3.37l4.94,2.69l2.43-1.62l3.28-1.97l2.46-2.13l4.24,0.28l2.53,1.68c0.75,1.37,1.39,2.85,1.4,3.24
	C666.91,785.98,666.58,788.49,666.31,789.31z"/>
<path d="M528.86,841.43c0,0.39-0.46,1.72-0.97,2.94h-3.54l-4.28,2.38l0.85,0.93c1.36,1.49,2.9,3.45,3.02,3.92
	c0,0.93,0.48,3.67,0.63,4.54c-0.17,0.6-0.65,2.24-0.91,3.01c-0.22,0.61-2.51,2.69-3.56,2.96c-0.87,0.22-3.13,0.65-5.39,0.01
	c-1.84-0.52-3.48-1.06-4.03-1.24l-2.75-2.44c-0.89-1.02-2.18-2.74-2.37-3.47c-0.28-1.12-1.32-2.38-2.24-3.49
	c-0.35-0.42-0.67-0.81-0.85-1.08c-0.72-1.09-2.5-2.04-2.93-2.27l-3.13-2.28v-2.47l1.31-1.97v-3.34l-2.08-2.08l-7.26-2.77l-5.03,0
	l-4.22-0.28c-0.48-1.68-0.88-3.53-0.8-3.96c0.33-0.74,3.56-3.4,4.29-3.65c0.78-0.25,6.92-0.6,8.2-0.6c0.5,0.03,2.63,0.95,4.37,1.81
	l4.82,4.18l3.89,2.35l4.43-2.21l3.5-3.1l1.49-2.04h5.2l4.65,1.86l3.24,2.06l2.45,6.73V841.43z"/>
<path d="M460.89,847.73l-4.17,1.14v1.74c-0.01,0.34-0.6,1.46-1.28,2.45l-2.04,0.77l-3.3-0.83c-0.6-0.75-2.29-2.73-4.06-3.62
	c-0.83-0.41-1.26-0.6-1.6-0.75c-0.45-0.2-0.7-0.3-1.61-0.85c-1.13-0.68-2.64-2.91-3.21-3.83l-0.29-0.88
	c-0.18-0.53,0.23-2.04,0.48-2.95c0.07-0.26,0.14-0.52,0.2-0.75c0.18-0.71,0.2-0.73,0.78-1.09c0.13-0.08,0.28-0.17,0.44-0.28
	c1.33-0.88,1.43-3.37,1.43-4.11v-1h-3.53l-2.18,1.09c-2.31,1.15-2.24,3.11-2.2,4.16c0,0.12,0.01,0.23,0.01,0.29
	c-0.08,0.23-0.72,0.75-1.34,1.08l-3.23,0.88c-0.82-0.26-2.07-0.78-2.59-1.3c-0.51-0.51-0.66-1.19-0.82-1.92
	c-0.08-0.34-0.15-0.67-0.25-0.97c-0.42-1.27-2.07-2.31-2.4-2.51l-0.2-0.09c-1.24-0.41-2.82-1.16-3.09-1.57
	c-0.29-0.44-0.33-1.73,0.44-4.05c0.41-1.22,1.09-1.8,1.88-2.47c0.29-0.24,0.57-0.48,0.83-0.75c0.58-0.58,2.16-0.94,3.84-1.33
	c0.51-0.12,1.05-0.24,1.59-0.38c2.28-0.57,4.02-0.02,4.03-0.02l4.02,0.68l4.13,1.27l4.57,2.13l2.14,3.67l1.91,2.31l2.67,1l2.47,2.47
	l3.95,2.34l2.69,3.89l0.54,3.75L460.89,847.73z"/>
</svg>
